<svg width="66" height="49" viewBox="0 0 66 49" fill="none" xmlns="http://www.w3.org/2000/svg">
<g filter="url(#filter0_dd_6_355)">
<rect x="9.96033" y="5" width="46.6143" height="30.0304" rx="5.37857" fill="white"/>
<rect x="9.84827" y="4.88795" width="46.8384" height="30.2545" rx="5.49062" stroke="#D6DCE5" stroke-width="0.224107"/>
<path d="M25.0373 16.0817C25.3483 15.6927 25.5594 15.1704 25.5037 14.6367C25.0485 14.6594 24.4929 14.9371 24.1713 15.3264C23.8825 15.6597 23.6269 16.2039 23.6935 16.7152C24.2046 16.7595 24.7151 16.4598 25.0373 16.0817Z" fill="#000008"/>
<path d="M25.4979 16.8151C24.7558 16.7709 24.1248 17.2363 23.7703 17.2363C23.4157 17.2363 22.873 16.8373 22.286 16.8481C21.522 16.8593 20.8131 17.2913 20.4253 17.9784C19.6279 19.3528 20.2149 21.3916 20.9904 22.511C21.367 23.0648 21.8208 23.6746 22.4188 23.6527C22.9839 23.6305 23.2053 23.2868 23.8922 23.2868C24.5785 23.2868 24.778 23.6527 25.3761 23.6416C25.9964 23.6305 26.3841 23.0875 26.7607 22.5332C27.1927 21.9019 27.3696 21.2923 27.3807 21.2588C27.3696 21.2477 26.1847 20.7932 26.1737 19.4302C26.1625 18.2889 27.104 17.746 27.1483 17.7123C26.6166 16.926 25.7859 16.8373 25.4979 16.8151Z" fill="#000008"/>
<path d="M31.96 15.2705C33.573 15.2705 34.6963 16.3824 34.6963 18.0013C34.6963 19.6259 33.5499 20.7435 31.9195 20.7435H30.1336V23.5837H28.8432V15.2705L31.96 15.2705ZM30.1336 19.6604H31.6142C32.7376 19.6604 33.377 19.0556 33.377 18.007C33.377 16.9586 32.7376 16.3594 31.6199 16.3594H30.1336V19.6604Z" fill="#000008"/>
<path d="M35.0334 21.8612C35.0334 20.8011 35.8457 20.1501 37.2861 20.0695L38.9451 19.9716V19.505C38.9451 18.8309 38.49 18.4276 37.7297 18.4276C37.0094 18.4276 36.56 18.7732 36.4506 19.3148H35.2754C35.3445 18.2201 36.2777 17.4136 37.7757 17.4136C39.2447 17.4136 40.1837 18.1914 40.1837 19.4069V23.5837H38.9911V22.5871H38.9625C38.6111 23.2611 37.8448 23.6874 37.0498 23.6874C35.863 23.6874 35.0334 22.95 35.0334 21.8612ZM38.9451 21.3139V20.8358L37.453 20.9279C36.7098 20.9798 36.2893 21.3081 36.2893 21.8266C36.2893 22.3566 36.7271 22.7023 37.3954 22.7023C38.2653 22.7023 38.9451 22.1031 38.9451 21.3139Z" fill="#000008"/>
<path d="M41.3096 25.8133V24.8051C41.4016 24.8281 41.609 24.8281 41.7127 24.8281C42.2888 24.8281 42.5999 24.5861 42.79 23.964C42.79 23.9524 42.8995 23.5953 42.8995 23.5895L40.7104 17.5231H42.0583L43.5909 22.4546H43.6138L45.1464 17.5231H46.4599L44.1899 23.9005C43.6716 25.3697 43.0724 25.8421 41.8165 25.8421C41.7127 25.8421 41.4016 25.8305 41.3096 25.8133Z" fill="#000008"/>
</g>
<defs>
<filter id="filter0_dd_6_355" x="0.77192" y="0.293736" width="64.9911" height="48.4071" filterUnits="userSpaceOnUse" color-interpolation-filters="sRGB">
<feFlood flood-opacity="0" result="BackgroundImageFix"/>
<feColorMatrix in="SourceAlpha" type="matrix" values="0 0 0 0 0 0 0 0 0 0 0 0 0 0 0 0 0 0 127 0" result="hardAlpha"/>
<feOffset dy="0.448214"/>
<feGaussianBlur stdDeviation="2.24107"/>
<feColorMatrix type="matrix" values="0 0 0 0 0.717647 0 0 0 0 0.717647 0 0 0 0 0.717647 0 0 0 0.08 0"/>
<feBlend mode="normal" in2="BackgroundImageFix" result="effect1_dropShadow_6_355"/>
<feColorMatrix in="SourceAlpha" type="matrix" values="0 0 0 0 0 0 0 0 0 0 0 0 0 0 0 0 0 0 127 0" result="hardAlpha"/>
<feOffset dy="4.48214"/>
<feGaussianBlur stdDeviation="4.48214"/>
<feColorMatrix type="matrix" values="0 0 0 0 0.717647 0 0 0 0 0.717647 0 0 0 0 0.717647 0 0 0 0.08 0"/>
<feBlend mode="normal" in2="effect1_dropShadow_6_355" result="effect2_dropShadow_6_355"/>
<feBlend mode="normal" in="SourceGraphic" in2="effect2_dropShadow_6_355" result="shape"/>
</filter>
</defs>
</svg>
