<svg width="66" height="49" viewBox="0 0 66 49" fill="none" xmlns="http://www.w3.org/2000/svg">
<g filter="url(#filter0_dd_5_542)">
<rect x="9.57422" y="5" width="46.6143" height="30.0304" rx="5.37857" fill="white"/>
<rect x="9.46217" y="4.88795" width="46.8384" height="30.2545" rx="5.49062" stroke="#D6DCE5" stroke-width="0.224107"/>
<path d="M31.8677 23.6142H30.8192V15.4559H33.5987C34.3031 15.4559 34.9038 15.6907 35.3952 16.1604C35.8976 16.63 36.1488 17.2033 36.1488 17.8805C36.1488 18.574 35.8976 19.1473 35.3952 19.6115C34.9092 20.0757 34.3086 20.305 33.5987 20.305H31.8677V23.6142ZM31.8677 16.4607V19.3057H33.6205C34.0355 19.3057 34.385 19.1637 34.6581 18.8852C34.9365 18.6067 35.0785 18.2682 35.0785 17.8859C35.0785 17.5091 34.9365 17.176 34.6581 16.8975C34.385 16.6081 34.041 16.4662 33.6205 16.4662H31.8677V16.4607Z" fill="#3C4043"/>
<path d="M38.8899 17.8477C39.6654 17.8477 40.277 18.0552 40.7247 18.4702C41.1725 18.8852 41.3964 19.4531 41.3964 20.174V23.6142H40.3971V22.8388H40.3534C39.922 23.4777 39.3432 23.7944 38.6224 23.7944C38.0053 23.7944 37.492 23.6142 37.077 23.2483C36.662 22.8824 36.4545 22.4292 36.4545 21.8831C36.4545 21.3043 36.6729 20.8456 37.1098 20.5071C37.5466 20.163 38.1309 19.9938 38.8572 19.9938C39.4797 19.9938 39.993 20.1084 40.3916 20.3378V20.0975C40.3916 19.7316 40.2496 19.4258 39.9602 19.1692C39.6708 18.9125 39.3323 18.7869 38.9446 18.7869C38.3603 18.7869 37.8961 19.0327 37.5575 19.5296L36.6347 18.9508C37.1425 18.2136 37.8961 17.8477 38.8899 17.8477ZM37.5357 21.8995C37.5357 22.1726 37.6504 22.4019 37.8852 22.5821C38.1145 22.7623 38.3876 22.8551 38.6988 22.8551C39.1411 22.8551 39.5343 22.6913 39.8783 22.3637C40.2223 22.036 40.3971 21.6538 40.3971 21.2115C40.0694 20.9548 39.6162 20.8238 39.0319 20.8238C38.606 20.8238 38.251 20.9275 37.9671 21.1296C37.6777 21.3425 37.5357 21.5992 37.5357 21.8995Z" fill="#3C4043"/>
<path d="M47.0974 18.028L43.6025 26.0661H42.5213L43.821 23.2538L41.5166 18.028H42.6579L44.3179 22.0361H44.3397L45.9561 18.028H47.0974Z" fill="#3C4043"/>
<path d="M27.6973 19.6443C27.6973 19.3024 27.6667 18.9753 27.6099 18.6608H23.2152V20.4628L25.7462 20.4634C25.6435 21.063 25.3132 21.5741 24.807 21.9148V23.084H26.3136C27.1933 22.2698 27.6973 21.0662 27.6973 19.6443Z" fill="#4285F4"/>
<path d="M24.8075 21.9149C24.3881 22.1977 23.8481 22.3632 23.2163 22.3632C21.9958 22.3632 20.9605 21.5408 20.5897 20.4323H19.0356V21.638C19.8055 23.1659 21.388 24.2144 23.2163 24.2144C24.4799 24.2144 25.5414 23.7988 26.3141 23.0835L24.8075 21.9149Z" fill="#34A853"/>
<path d="M20.4433 19.5378C20.4433 19.2265 20.4952 18.9256 20.5897 18.6428V17.4371H19.0356C18.7172 18.0689 18.5381 18.782 18.5381 19.5378C18.5381 20.2935 18.7177 21.0067 19.0356 21.6385L20.5897 20.4328C20.4952 20.1499 20.4433 19.849 20.4433 19.5378Z" fill="#FABB05"/>
<path d="M23.2163 16.7119C23.9059 16.7119 24.5235 16.9494 25.0112 17.4136L26.3463 16.0795C25.5354 15.3243 24.4782 14.8607 23.2163 14.8607C21.3886 14.8607 19.8055 15.9092 19.0356 17.4371L20.5897 18.6428C20.9604 17.5343 21.9958 16.7119 23.2163 16.7119Z" fill="#E94235"/>
</g>
<defs>
<filter id="filter0_dd_5_542" x="0.3863" y="0.293736" width="64.9911" height="48.4072" filterUnits="userSpaceOnUse" color-interpolation-filters="sRGB">
<feFlood flood-opacity="0" result="BackgroundImageFix"/>
<feColorMatrix in="SourceAlpha" type="matrix" values="0 0 0 0 0 0 0 0 0 0 0 0 0 0 0 0 0 0 127 0" result="hardAlpha"/>
<feOffset dy="0.448214"/>
<feGaussianBlur stdDeviation="2.24107"/>
<feColorMatrix type="matrix" values="0 0 0 0 0.717647 0 0 0 0 0.717647 0 0 0 0 0.717647 0 0 0 0.08 0"/>
<feBlend mode="normal" in2="BackgroundImageFix" result="effect1_dropShadow_5_542"/>
<feColorMatrix in="SourceAlpha" type="matrix" values="0 0 0 0 0 0 0 0 0 0 0 0 0 0 0 0 0 0 127 0" result="hardAlpha"/>
<feOffset dy="4.48214"/>
<feGaussianBlur stdDeviation="4.48214"/>
<feColorMatrix type="matrix" values="0 0 0 0 0.717647 0 0 0 0 0.717647 0 0 0 0 0.717647 0 0 0 0.08 0"/>
<feBlend mode="normal" in2="effect1_dropShadow_5_542" result="effect2_dropShadow_5_542"/>
<feBlend mode="normal" in="SourceGraphic" in2="effect2_dropShadow_5_542" result="shape"/>
</filter>
</defs>
</svg>
