<svg width="66" height="49" viewBox="0 0 66 49" fill="none" xmlns="http://www.w3.org/2000/svg">
<g filter="url(#filter0_dd_5_536)">
<rect x="9.73145" y="5" width="46.6143" height="30.0304" rx="5.37857" fill="white"/>
<rect x="9.61939" y="4.88795" width="46.8384" height="30.2545" rx="5.49062" stroke="#D6DCE5" stroke-width="0.224107"/>
<path d="M36.3872 13.8484H29.5239V26.1819H36.3872V13.8484Z" fill="#FF5F00"/>
<path d="M29.9598 20.0151C29.9587 18.8273 30.2278 17.6548 30.7469 16.5864C31.2659 15.518 32.0212 14.5817 32.9556 13.8484C31.7985 12.9389 30.4088 12.3732 28.9455 12.2162C27.4821 12.0591 26.004 12.3169 24.6803 12.9602C23.3565 13.6034 22.2404 14.6061 21.4596 15.8537C20.6787 17.1013 20.2646 18.5434 20.2646 20.0151C20.2646 21.4869 20.6787 22.929 21.4596 24.1766C22.2404 25.4241 23.3565 26.4269 24.6803 27.0701C26.004 27.7133 27.4821 27.9712 28.9455 27.8141C30.4088 27.657 31.7985 27.0914 32.9556 26.1819C32.0212 25.4485 31.2659 24.5122 30.7469 23.4438C30.2279 22.3754 29.9587 21.2029 29.9598 20.0151Z" fill="#EB001B"/>
<path d="M45.6462 20.0151C45.6462 21.4869 45.2322 22.929 44.4514 24.1765C43.6706 25.4241 42.5545 26.4268 41.2308 27.0701C39.9071 27.7133 38.429 27.9712 36.9657 27.8141C35.5023 27.657 34.1127 27.0914 32.9556 26.1819C33.8892 25.4478 34.6439 24.5113 35.1628 23.4431C35.6818 22.3749 35.9514 21.2028 35.9514 20.0151C35.9514 18.8275 35.6818 17.6554 35.1628 16.5872C34.6439 15.5189 33.8892 14.5825 32.9556 13.8484C34.1127 12.9389 35.5023 12.3732 36.9657 12.2162C38.429 12.0591 39.9071 12.3169 41.2308 12.9602C42.5545 13.6034 43.6706 14.6062 44.4514 15.8537C45.2322 17.1013 45.6462 18.5434 45.6462 20.0151Z" fill="#F79E1B"/>
<path d="M44.8979 24.8756V24.6231H44.9997V24.5716H44.7404V24.6231H44.8422V24.8756H44.8979ZM45.4013 24.8756V24.5711H45.3218L45.2304 24.7805L45.1389 24.5711H45.0594V24.8756H45.1155V24.6459L45.2012 24.8439H45.2594L45.3452 24.6454V24.8756H45.4013Z" fill="#F79E1B"/>
</g>
<defs>
<filter id="filter0_dd_5_536" x="0.543527" y="0.293736" width="64.9911" height="48.4072" filterUnits="userSpaceOnUse" color-interpolation-filters="sRGB">
<feFlood flood-opacity="0" result="BackgroundImageFix"/>
<feColorMatrix in="SourceAlpha" type="matrix" values="0 0 0 0 0 0 0 0 0 0 0 0 0 0 0 0 0 0 127 0" result="hardAlpha"/>
<feOffset dy="0.448214"/>
<feGaussianBlur stdDeviation="2.24107"/>
<feColorMatrix type="matrix" values="0 0 0 0 0.717647 0 0 0 0 0.717647 0 0 0 0 0.717647 0 0 0 0.08 0"/>
<feBlend mode="normal" in2="BackgroundImageFix" result="effect1_dropShadow_5_536"/>
<feColorMatrix in="SourceAlpha" type="matrix" values="0 0 0 0 0 0 0 0 0 0 0 0 0 0 0 0 0 0 127 0" result="hardAlpha"/>
<feOffset dy="4.48214"/>
<feGaussianBlur stdDeviation="4.48214"/>
<feColorMatrix type="matrix" values="0 0 0 0 0.717647 0 0 0 0 0.717647 0 0 0 0 0.717647 0 0 0 0.08 0"/>
<feBlend mode="normal" in2="effect1_dropShadow_5_536" result="effect2_dropShadow_5_536"/>
<feBlend mode="normal" in="SourceGraphic" in2="effect2_dropShadow_5_536" result="shape"/>
</filter>
</defs>
</svg>
