<svg width="66" height="49" viewBox="0 0 66 49" fill="none" xmlns="http://www.w3.org/2000/svg">
<g filter="url(#filter0_dd_5_538)">
<rect x="9.3457" y="5" width="46.6143" height="30.0304" rx="5.37857" fill="white"/>
<rect x="9.23365" y="4.88795" width="46.8384" height="30.2545" rx="5.49062" stroke="#D6DCE5" stroke-width="0.224107"/>
<path fill-rule="evenodd" clip-rule="evenodd" d="M19.5428 15.646H16.8553C16.6714 15.646 16.5149 15.7796 16.4863 15.9611L15.3993 22.8518C15.3777 22.9879 15.483 23.1104 15.6209 23.1104H16.904C17.0879 23.1104 17.2443 22.9768 17.273 22.7949L17.5661 20.9364C17.5944 20.7544 17.7512 20.6209 17.9347 20.6209H18.7855C20.5559 20.6209 21.5775 19.7643 21.8445 18.0669C21.9647 17.3243 21.8496 16.7408 21.5017 16.332C21.1198 15.8835 20.4422 15.646 19.5428 15.646ZM19.8528 18.1627C19.7059 19.127 18.969 19.127 18.2566 19.127H17.851L18.1356 17.3261C18.1524 17.2174 18.2468 17.1372 18.3568 17.1372H18.5427C19.028 17.1372 19.4858 17.1372 19.7224 17.4138C19.8634 17.5789 19.9066 17.824 19.8528 18.1627ZM27.5763 18.1318H26.2894C26.1797 18.1318 26.085 18.212 26.068 18.3209L26.0111 18.6808L25.9211 18.5504C25.6425 18.146 25.0213 18.0109 24.4012 18.0109C22.9789 18.0109 21.7643 19.0879 21.5277 20.5988C21.4048 21.3523 21.5795 22.0729 22.0071 22.5755C22.3993 23.0375 22.9605 23.2301 23.6281 23.2301C24.774 23.2301 25.4095 22.4933 25.4095 22.4933L25.3521 22.8509C25.3304 22.9877 25.4357 23.1102 25.5729 23.1102H26.7322C26.9166 23.1102 27.0721 22.9766 27.1012 22.7948L27.7967 18.3904C27.8187 18.2549 27.7138 18.1318 27.5763 18.1318ZM25.7823 20.6364C25.6581 21.3715 25.0746 21.865 24.3304 21.865C23.9567 21.865 23.6579 21.7452 23.4663 21.5181C23.276 21.2926 23.2037 20.9715 23.2642 20.614C23.3802 19.8851 23.9736 19.3756 24.7065 19.3756C25.0718 19.3756 25.369 19.4968 25.5647 19.726C25.7607 19.9574 25.8385 20.2804 25.7823 20.6364ZM33.1373 18.1317H34.4306C34.6117 18.1317 34.7174 18.3348 34.6145 18.4833L30.3131 24.6914C30.2434 24.792 30.1287 24.8518 30.0061 24.8518H28.7144C28.5325 24.8518 28.4263 24.6471 28.5316 24.4982L29.871 22.6078L28.4465 18.4279C28.3972 18.2826 28.5045 18.1317 28.6591 18.1317H29.9299C30.095 18.1317 30.2407 18.24 30.2883 18.398L31.0443 20.9226L32.8281 18.2955C32.8979 18.1929 33.014 18.1317 33.1373 18.1317Z" fill="#253B80"/>
<path fill-rule="evenodd" clip-rule="evenodd" d="M47.1598 22.8512L48.2628 15.8345C48.2797 15.7256 48.3741 15.6454 48.4837 15.645H49.7254C49.8625 15.645 49.9678 15.7679 49.9462 15.9039L48.8585 22.7943C48.8301 22.9762 48.6737 23.1098 48.4895 23.1098H47.3806C47.2435 23.1098 47.1382 22.9872 47.1598 22.8512ZM38.7129 15.6454H36.0249C35.8414 15.6454 35.685 15.779 35.6563 15.9605L34.5693 22.8512C34.5477 22.9872 34.653 23.1098 34.7903 23.1098H36.1695C36.2977 23.1098 36.4073 23.0163 36.4273 22.8891L36.7358 20.9358C36.7641 20.7538 36.9209 20.6203 37.1044 20.6203H37.9547C39.7254 20.6203 40.7469 19.7637 41.0141 18.0663C41.1346 17.3237 41.0188 16.7402 40.6711 16.3314C40.2894 15.8829 39.6123 15.6454 38.7129 15.6454ZM39.0229 18.1621C38.8764 19.1264 38.1395 19.1264 37.4266 19.1264H37.0214L37.3064 17.3255C37.3233 17.2168 37.4168 17.1366 37.5272 17.1366H37.713C38.198 17.1366 38.6563 17.1366 38.8927 17.4132C39.0338 17.5783 39.0768 17.8234 39.0229 18.1621ZM46.7457 18.1312H45.4597C45.3491 18.1312 45.2553 18.2114 45.2387 18.3203L45.1818 18.6802L45.0914 18.5498C44.8128 18.1454 44.192 18.0103 43.5718 18.0103C42.1495 18.0103 40.9353 19.0873 40.6987 20.5981C40.5761 21.3517 40.7502 22.0723 41.1777 22.5748C41.5707 23.0369 42.1312 23.2294 42.7988 23.2294C43.9446 23.2294 44.58 22.4927 44.58 22.4927L44.5227 22.8503C44.5011 22.9871 44.6064 23.1096 44.7444 23.1096H45.9032C46.0867 23.1096 46.2431 22.976 46.2718 22.7941L46.9678 18.3898C46.989 18.2543 46.8838 18.1312 46.7457 18.1312ZM44.9519 20.6358C44.8284 21.3709 44.2441 21.8644 43.4998 21.8644C43.1268 21.8644 42.8275 21.7446 42.6356 21.5175C42.4454 21.292 42.374 20.9709 42.4338 20.6134C42.5504 19.8845 43.143 19.375 43.8759 19.375C44.2414 19.375 44.5384 19.4962 44.7342 19.7253C44.931 19.9568 45.0088 20.2798 44.9519 20.6358Z" fill="#179BD7"/>
</g>
<defs>
<filter id="filter0_dd_5_538" x="0.157784" y="0.293736" width="64.9911" height="48.4072" filterUnits="userSpaceOnUse" color-interpolation-filters="sRGB">
<feFlood flood-opacity="0" result="BackgroundImageFix"/>
<feColorMatrix in="SourceAlpha" type="matrix" values="0 0 0 0 0 0 0 0 0 0 0 0 0 0 0 0 0 0 127 0" result="hardAlpha"/>
<feOffset dy="0.448214"/>
<feGaussianBlur stdDeviation="2.24107"/>
<feColorMatrix type="matrix" values="0 0 0 0 0.717647 0 0 0 0 0.717647 0 0 0 0 0.717647 0 0 0 0.08 0"/>
<feBlend mode="normal" in2="BackgroundImageFix" result="effect1_dropShadow_5_538"/>
<feColorMatrix in="SourceAlpha" type="matrix" values="0 0 0 0 0 0 0 0 0 0 0 0 0 0 0 0 0 0 127 0" result="hardAlpha"/>
<feOffset dy="4.48214"/>
<feGaussianBlur stdDeviation="4.48214"/>
<feColorMatrix type="matrix" values="0 0 0 0 0.717647 0 0 0 0 0.717647 0 0 0 0 0.717647 0 0 0 0.08 0"/>
<feBlend mode="normal" in2="effect1_dropShadow_5_538" result="effect2_dropShadow_5_538"/>
<feBlend mode="normal" in="SourceGraphic" in2="effect2_dropShadow_5_538" result="shape"/>
</filter>
</defs>
</svg>
