<svg width="25" height="26" viewBox="0 0 25 26" fill="none" xmlns="http://www.w3.org/2000/svg">
<path d="M17.8922 9.38551C19.4999 10.5849 21.4693 11.2907 23.5964 11.2907V7.01858C23.1939 7.01866 22.7923 6.97485 22.3985 6.88776V10.2505C20.2716 10.2505 18.3024 9.54478 16.6943 8.34543V17.0635C16.6943 21.4248 13.3069 24.96 9.12854 24.96C7.5695 24.96 6.12044 24.4681 4.9167 23.6244C6.29057 25.0905 8.20653 26.0001 10.3262 26.0001C14.5048 26.0001 17.8924 22.4648 17.8924 18.1034V9.38551H17.8922ZM19.37 5.07549C18.5484 4.13866 18.0089 2.92798 17.8922 1.58952V1.04004H16.757C17.0428 2.74122 18.0174 4.19461 19.37 5.07549ZM7.5595 20.2777C7.10046 19.6495 6.8524 18.8811 6.85351 18.0909C6.85351 16.0963 8.40289 14.479 10.3144 14.479C10.6707 14.4789 11.0248 14.5358 11.3643 14.6482V10.2807C10.9675 10.2239 10.5671 10.1998 10.1668 10.2087V13.6082C9.82709 13.4957 9.47282 13.4386 9.11649 13.439C7.20497 13.439 5.65567 15.0561 5.65567 17.051C5.65567 18.4616 6.43011 19.6828 7.5595 20.2777Z" fill="#FF004F"/>
<path d="M16.6942 8.34535C18.3023 9.54469 20.2715 10.2504 22.3985 10.2504V6.88767C21.2112 6.62373 20.1602 5.97618 19.3699 5.07549C18.0173 4.19452 17.0427 2.74113 16.757 1.04004H13.7751V18.1032C13.7683 20.0925 12.2216 21.7032 10.3142 21.7032C9.19018 21.7032 8.19161 21.144 7.55919 20.2777C6.42988 19.6828 5.65545 18.4615 5.65545 17.0511C5.65545 15.0564 7.20474 13.4391 9.11626 13.4391C9.4825 13.4391 9.8355 13.4986 10.1666 13.6083V10.2087C6.06168 10.2973 2.76031 13.798 2.76031 18.1033C2.76031 20.2525 3.58243 22.2009 4.91673 23.6245C6.12047 24.4681 7.56953 24.9601 9.12857 24.9601C13.307 24.9601 16.6943 21.4247 16.6943 17.0635V8.34535H16.6942Z" fill="black"/>
<path d="M22.3985 6.88762V5.97836C21.3279 5.98005 20.2783 5.66712 19.37 5.07535C20.174 5.99415 21.2329 6.62769 22.3985 6.88762ZM16.757 1.03998C16.7297 0.877404 16.7088 0.713755 16.6943 0.549482V0H12.5771V17.0634C12.5705 19.0523 11.0239 20.663 9.11629 20.663C8.55625 20.663 8.02748 20.5243 7.55922 20.2777C8.19163 21.1439 9.1902 21.703 10.3142 21.703C12.2215 21.703 13.7684 20.0925 13.7751 18.1033V1.03998H16.757ZM10.1668 10.2087V9.24072C9.82279 9.19164 9.47595 9.16701 9.12868 9.16719C4.94991 9.1671 1.5625 12.7025 1.5625 17.0634C1.5625 19.7974 2.89381 22.2069 4.91684 23.6242C3.58254 22.2007 2.76042 20.2523 2.76042 18.1032C2.76042 13.7979 6.0617 10.2972 10.1668 10.2087Z" fill="#00F2EA"/>
</svg>
